<?xml version="1.0" encoding="UTF-8"?>
<svg version="1.1" xmlns="http://www.w3.org/2000/svg" width="50" height="50">
<path d="M0 0 C3.66377743 0.57380172 5.32767225 1.97269658 7.890625 4.59765625 C8.59960938 5.31630859 9.30859375 6.03496094 10.0390625 6.77539062 C10.76867188 7.53013672 11.49828125 8.28488281 12.25 9.0625 C12.99507812 9.82111328 13.74015625 10.57972656 14.5078125 11.36132812 C16.34546694 13.23432207 18.17575724 15.11395611 20 17 C23.14991294 15.61263623 25.19935814 14.00943764 27.56640625 11.5234375 C28.21673828 10.853125 28.86707031 10.1828125 29.53710938 9.4921875 C30.89313999 8.07469745 32.24729316 6.6554091 33.59960938 5.234375 C34.24865234 4.56664062 34.89769531 3.89890625 35.56640625 3.2109375 C36.15365479 2.59524902 36.74090332 1.97956055 37.34594727 1.34521484 C39 0 39 0 42 0 C41.12784342 5.82123378 36.22472504 9.32848822 32.25 13.3125 C31.43789063 14.16134766 30.62578125 15.01019531 29.7890625 15.88476562 C28.99757813 16.68205078 28.20609375 17.47933594 27.390625 18.30078125 C26.66907227 19.03466064 25.94751953 19.76854004 25.20410156 20.5246582 C23 22 23 22 20.50219727 21.97680664 C17.48890091 20.80047737 15.85691902 19.35882374 13.57421875 17.0703125 C12.77822266 16.27496094 11.98222656 15.47960937 11.16210938 14.66015625 C10.34548828 13.82355469 9.52886719 12.98695312 8.6875 12.125 C7.85154297 11.29613281 7.01558594 10.46726562 6.15429688 9.61328125 C0 3.39367347 0 3.39367347 0 0 Z " fill="#000000" transform="translate(4,14)"/>
</svg>
